<svg width="512" height="512" viewBox="0 0 512 512" xmlns="http://www.w3.org/2000/svg">
  <defs>
    <linearGradient id="bgGrad" x1="0" y1="0" x2="1" y2="1">
      <stop offset="0%" stop-color="#1B1E2B"/>
      <stop offset="100%" stop-color="#0E0F16"/>
    </linearGradient>
    <linearGradient id="loopGrad" x1="0" y1="0" x2="1" y2="1">
      <stop offset="0%" stop-color="#7C5CFC"/>
      <stop offset="55%" stop-color="#5B8DEF"/>
      <stop offset="100%" stop-color="#2FD4C9"/>
    </linearGradient>
  </defs>

  <!-- Background -->
  <rect x="16" y="16" width="480" height="480" rx="108" fill="url(#bgGrad)"/>

  <!-- DevOps infinity loop -->
  <path d="M 446.0,256.0 L 445.88,259.98 L 445.5,263.94 L 444.88,267.86 L 444.02,271.73 L 442.92,275.54 L 441.59,279.26 L 440.03,282.88 L 438.27,286.4 L 436.3,289.79 L 434.15,293.04 L 431.81,296.15 L 429.31,299.1 L 426.66,301.89 L 423.87,304.52 L 420.95,306.97 L 417.92,309.25 L 414.79,311.35 L 411.57,313.27 L 408.29,315.01 L 404.93,316.58 L 401.53,317.97 L 398.09,319.18 L 394.62,320.22 L 391.14,321.1 L 387.64,321.82 L 384.13,322.38 L 380.64,322.78 L 377.15,323.04 L 373.69,323.17 L 370.24,323.15 L 366.83,323.01 L 363.45,322.74 L 360.1,322.36 L 356.79,321.86 L 353.53,321.26 L 350.31,320.56 L 347.14,319.76 L 344.01,318.88 L 340.93,317.91 L 337.9,316.87 L 334.92,315.74 L 331.99,314.55 L 329.11,313.3 L 326.28,311.98 L 323.5,310.61 L 320.77,309.18 L 318.08,307.71 L 315.44,306.18 L 312.84,304.62 L 310.29,303.01 L 307.77,301.37 L 305.3,299.69 L 302.87,297.99 L 300.48,296.25 L 298.12,294.48 L 295.8,292.69 L 293.51,290.88 L 291.26,289.05 L 289.03,287.19 L 286.83,285.32 L 284.65,283.43 L 282.51,281.53 L 280.38,279.61 L 278.27,277.69 L 276.19,275.75 L 274.12,273.8 L 272.07,271.84 L 270.03,269.88 L 268.0,267.91 L 265.98,265.93 L 263.98,263.95 L 261.98,261.97 L 259.98,259.98 L 257.99,257.99 L 256.0,256.0 L 254.01,254.01 L 252.02,252.02 L 250.02,250.03 L 248.02,248.05 L 246.02,246.07 L 244.0,244.09 L 241.97,242.12 L 239.93,240.16 L 237.88,238.2 L 235.81,236.25 L 233.73,234.31 L 231.62,232.39 L 229.49,230.47 L 227.35,228.57 L 225.17,226.68 L 222.97,224.81 L 220.74,222.95 L 218.49,221.12 L 216.2,219.31 L 213.88,217.52 L 211.52,215.75 L 209.13,214.01 L 206.7,212.31 L 204.23,210.63 L 201.71,208.99 L 199.16,207.38 L 196.56,205.82 L 193.92,204.29 L 191.23,202.82 L 188.5,201.39 L 185.72,200.02 L 182.89,198.7 L 180.01,197.45 L 177.08,196.26 L 174.1,195.13 L 171.07,194.09 L 167.99,193.12 L 164.86,192.24 L 161.69,191.44 L 158.47,190.74 L 155.21,190.14 L 151.9,189.64 L 148.55,189.26 L 145.17,188.99 L 141.76,188.85 L 138.31,188.83 L 134.85,188.96 L 131.36,189.22 L 127.87,189.62 L 124.36,190.18 L 120.86,190.9 L 117.38,191.78 L 113.91,192.82 L 110.47,194.03 L 107.07,195.42 L 103.71,196.99 L 100.43,198.73 L 97.21,200.65 L 94.08,202.75 L 91.05,205.03 L 88.13,207.48 L 85.34,210.11 L 82.69,212.9 L 80.19,215.85 L 77.85,218.96 L 75.7,222.21 L 73.73,225.6 L 71.97,229.12 L 70.41,232.74 L 69.08,236.46 L 67.98,240.27 L 67.12,244.14 L 66.5,248.06 L 66.12,252.02 L 66.0,256.0 L 66.12,259.98 L 66.5,263.94 L 67.12,267.86 L 67.98,271.73 L 69.08,275.54 L 70.41,279.26 L 71.97,282.88 L 73.73,286.4 L 75.7,289.79 L 77.85,293.04 L 80.19,296.15 L 82.69,299.1 L 85.34,301.89 L 88.13,304.52 L 91.05,306.97 L 94.08,309.25 L 97.21,311.35 L 100.43,313.27 L 103.71,315.01 L 107.07,316.58 L 110.47,317.97 L 113.91,319.18 L 117.38,320.22 L 120.86,321.1 L 124.36,321.82 L 127.87,322.38 L 131.36,322.78 L 134.85,323.04 L 138.31,323.17 L 141.76,323.15 L 145.17,323.01 L 148.55,322.74 L 151.9,322.36 L 155.21,321.86 L 158.47,321.26 L 161.69,320.56 L 164.86,319.76 L 167.99,318.88 L 171.07,317.91 L 174.1,316.87 L 177.08,315.74 L 180.01,314.55 L 182.89,313.3 L 185.72,311.98 L 188.5,310.61 L 191.23,309.18 L 193.92,307.71 L 196.56,306.18 L 199.16,304.62 L 201.71,303.01 L 204.23,301.37 L 206.7,299.69 L 209.13,297.99 L 211.52,296.25 L 213.88,294.48 L 216.2,292.69 L 218.49,290.88 L 220.74,289.05 L 222.97,287.19 L 225.17,285.32 L 227.35,283.43 L 229.49,281.53 L 231.62,279.61 L 233.73,277.69 L 235.81,275.75 L 237.88,273.8 L 239.93,271.84 L 241.97,269.88 L 244.0,267.91 L 246.02,265.93 L 248.02,263.95 L 250.02,261.97 L 252.02,259.98 L 254.01,257.99 L 256.0,256.0 L 257.99,254.01 L 259.98,252.02 L 261.98,250.03 L 263.98,248.05 L 265.98,246.07 L 268.0,244.09 L 270.03,242.12 L 272.07,240.16 L 274.12,238.2 L 276.19,236.25 L 278.27,234.31 L 280.38,232.39 L 282.51,230.47 L 284.65,228.57 L 286.83,226.68 L 289.03,224.81 L 291.26,222.95 L 293.51,221.12 L 295.8,219.31 L 298.12,217.52 L 300.48,215.75 L 302.87,214.01 L 305.3,212.31 L 307.77,210.63 L 310.29,208.99 L 312.84,207.38 L 315.44,205.82 L 318.08,204.29 L 320.77,202.82 L 323.5,201.39 L 326.28,200.02 L 329.11,198.7 L 331.99,197.45 L 334.92,196.26 L 337.9,195.13 L 340.93,194.09 L 344.01,193.12 L 347.14,192.24 L 350.31,191.44 L 353.53,190.74 L 356.79,190.14 L 360.1,189.64 L 363.45,189.26 L 366.83,188.99 L 370.24,188.85 L 373.69,188.83 L 377.15,188.96 L 380.64,189.22 L 384.13,189.62 L 387.64,190.18 L 391.14,190.9 L 394.62,191.78 L 398.09,192.82 L 401.53,194.03 L 404.93,195.42 L 408.29,196.99 L 411.57,198.73 L 414.79,200.65 L 417.92,202.75 L 420.95,205.03 L 423.87,207.48 L 426.66,210.11 L 429.31,212.9 L 431.81,215.85 L 434.15,218.96 L 436.3,222.21 L 438.27,225.6 L 440.03,229.12 L 441.59,232.74 L 442.92,236.46 L 444.02,240.27 L 444.88,244.14 L 445.5,248.06 L 445.88,252.02 L 446.0,256.0 Z"
    fill="none" stroke="url(#loopGrad)" stroke-width="32" stroke-linecap="round" stroke-linejoin="round"/>

  <!-- subtle AI node at the crossing point -->
  <circle cx="256" cy="256" r="12" fill="#F4F6FB"/>
</svg>
